# xmcd CD database file
#
# Track frame offsets:
#	150
#	18540
#	39169
#	60931
#	82092
#	102085
#	122395
#	144619
#	159818
#	176942
#
# Disc length: 2675 seconds
#
# Revision: 0
# Processed by: cddbd v1.5.1PL0 Copyright (c) Steve Scherf et al.
# Submitted via: CDex 1.51
#
DISCID=740a710a
DTITLE=Robert Monteleone - Just havin' fun
DYEAR=2004
DGENRE=Jazz
TTITLE0=Robert Monteleone - Just havin' fun - 01 - Kickin' It
TTITLE1=Robert Monteleone - Just havin' fun - 02 - Winds On Westcliff
TTITLE2=Robert Monteleone - Just havin' fun - 03 - Moonlight In Maui
TTITLE3=Robert Monteleone - Just havin' fun - 04 - Sweet Love
TTITLE4=Robert Monteleone - Just havin' fun - 05 - Takin' A Break
TTITLE5=Robert Monteleone - Just havin' fun - 06 - Piece For Pieces
TTITLE6=Robert Monteleone - Just havin' fun - 07 - Gettin' Together
TTITLE7=Robert Monteleone - Just havin' fun - 08 - Just Havin' Fun
TTITLE8=Robert Monteleone - Just havin' fun - 09 - Ghost Mountain
TTITLE9=Robert Monteleone - Just havin' fun - 10 - Don't Sweat It
EXTD=YEAR: 2004
EXTT0=
EXTT1=
EXTT2=
EXTT3=
EXTT4=
EXTT5=
EXTT6=
EXTT7=
EXTT8=
EXTT9=
PLAYORDER=
